<?xml version="1.0"?>
<svg xmlns="http://www.w3.org/2000/svg" xmlns:xlink="http://www.w3.org/1999/xlink" xmlns:svgjs="http://svgjs.com/svgjs" version="1.1" width="512" height="512" x="0" y="0" viewBox="0 0 512 512" style="enable-background:new 0 0 512 512" xml:space="preserve" class=""><g>
<g xmlns="http://www.w3.org/2000/svg">
	<g>
		<path d="M466.02,111.946l1.038-1.038c3.221-3.222,3.221-8.444,0-11.665c-3.22-3.22-8.443-3.22-11.664,0l-117.69,117.688    c-4.564,4.564-5.345,11.576-1.898,17.055c9.374,14.895,6.56,34.185-6.693,45.869c-1.852,1.632-3.841,3.032-5.922,4.213    c-0.11,0.059-0.22,0.12-0.327,0.185c-12.813,7.098-29.16,5.737-40.61-4.145c-6.159-5.315-10.231-12.304-11.779-20.212    c-0.003-0.019-0.01-0.037-0.013-0.056c-0.003-0.014-0.003-0.029-0.007-0.043l-3.173-15.225c-0.928-4.46-5.299-7.328-9.757-6.392    c-3.882,0.808-6.55,4.223-6.564,8.035c-4.315-2.105-8.186-5.073-11.429-8.83c-10.917-12.651-10.694-34.666,0.478-47.112    c11.689-13.021,30.887-15.73,45.643-6.442c5.476,3.451,12.489,2.67,17.056-1.895L421.802,62.846c3.221-3.222,3.221-8.444,0-11.665    c-3.221-3.22-8.444-3.22-11.664,0l-0.685,0.685C365.586,18.376,311.38,0,256,0C188.436,0,124.915,26.311,77.14,74.086    C29.365,121.862,3.054,185.381,3.054,252.946c0,61.644,22.429,121.031,63.153,167.219c38.706,43.899,91.226,72.952,148.552,82.367    v1.22c0,4.556,3.693,8.248,8.248,8.248s8.248-3.692,8.248-8.248v-6.435c0.056-0.247,0.102-0.499,0.137-0.756    c0.134-1,0.074-1.98-0.137-2.909V345.176c0-6.453-4.406-11.964-10.717-13.402c-17.163-3.903-28.813-19.536-27.701-37.17    c1.115-17.692,15.282-32.012,32.955-33.311c8.116-0.591,15.936,1.466,22.619,5.963c2.193,1.476,4.837,1.75,7.169,0.988    c2.856,9.436,8.279,17.78,15.895,24.352c9.737,8.404,21.897,12.599,34.054,12.599c4.404,0,8.804-0.561,13.092-1.661    c-2.556,13.765-12.97,25.013-27.162,28.241c-6.308,1.436-10.714,6.946-10.714,13.401v158.574c0,4.556,3.693,8.248,8.248,8.248    c4.555,0,8.248-3.692,8.248-8.248v-1.219c57.362-9.421,109.911-38.507,148.621-82.446c40.68-46.176,63.084-105.535,63.084-167.14    C508.947,202.287,494.121,153.694,466.02,111.946z M227.735,179.258c-15.688,17.475-16.847,46.552-3.277,65.599    c-25.794,1.957-46.455,22.875-48.084,48.712c-1.577,25.021,14.458,47.287,38.385,53.765v138.468    C102.811,466.102,19.55,367.674,19.55,252.946c0-130.38,106.071-236.45,236.45-236.45c51.03,0,100.992,16.689,141.676,47.144    L292.569,168.748C271.26,156.531,244.317,160.784,227.735,179.258z M297.241,485.8V347.333    c23.27-6.302,39.069-27.534,38.471-51.706c1.48-1.049,2.923-2.175,4.309-3.397c18.805-16.577,23.208-43.66,10.872-65.158    l103.231-103.23c25.103,38.407,38.327,82.832,38.327,129.104C492.45,367.639,409.176,466.1,297.241,485.8z" fill="#ffffff" data-original="#000000" style=""/>
	</g>
</g>
<g xmlns="http://www.w3.org/2000/svg">
</g>
<g xmlns="http://www.w3.org/2000/svg">
</g>
<g xmlns="http://www.w3.org/2000/svg">
</g>
<g xmlns="http://www.w3.org/2000/svg">
</g>
<g xmlns="http://www.w3.org/2000/svg">
</g>
<g xmlns="http://www.w3.org/2000/svg">
</g>
<g xmlns="http://www.w3.org/2000/svg">
</g>
<g xmlns="http://www.w3.org/2000/svg">
</g>
<g xmlns="http://www.w3.org/2000/svg">
</g>
<g xmlns="http://www.w3.org/2000/svg">
</g>
<g xmlns="http://www.w3.org/2000/svg">
</g>
<g xmlns="http://www.w3.org/2000/svg">
</g>
<g xmlns="http://www.w3.org/2000/svg">
</g>
<g xmlns="http://www.w3.org/2000/svg">
</g>
<g xmlns="http://www.w3.org/2000/svg">
</g>
</g></svg>
