<?xml version="1.0"?>
<svg xmlns="http://www.w3.org/2000/svg" xmlns:xlink="http://www.w3.org/1999/xlink" xmlns:svgjs="http://svgjs.com/svgjs" version="1.1" width="512" height="512" x="0" y="0" viewBox="0 0 512 512" style="enable-background:new 0 0 512 512" xml:space="preserve" class=""><g><path xmlns="http://www.w3.org/2000/svg" d="M477.486,38.719a6,6,0,0,0-4.965-2.634h0a6,6,0,0,0-4.966,2.631c-.781,1.152-19.193,28.325-23.94,38.411-2.7,5.734-5.576,12.554-5.576,20.937a34.481,34.481,0,0,0,68.962,0c0-8.48-2.529-14.506-5.583-20.953C496.608,66.966,478.265,39.867,477.486,38.719Zm-4.966,81.807a22.5,22.5,0,0,1-22.482-22.462c0-5.909,2.19-11.06,4.433-15.828,2.919-6.2,12.2-20.52,18.046-29.352C478.351,61.7,487.609,76,490.573,82.25c3,6.331,4.427,10.312,4.427,15.814A22.5,22.5,0,0,1,472.52,120.526Z" fill="#ffffff" data-original="#000000" style=""/><path xmlns="http://www.w3.org/2000/svg" d="M63.258,483.481a18.457,18.457,0,1,0,26.1-26.1L75.986,444l39.821-39.82,28.6,28.6a19.613,19.613,0,1,0,27.737-27.738l-2.174-2.175,174.3-174.3a21.756,21.756,0,0,0,2.033-28.458l22.68-22.68A18.069,18.069,0,0,0,372.3,156.5l28.856-28.856a24.709,24.709,0,0,0,3.7-30.126l64.161-64.161a6,6,0,1,0-8.486-8.485L396.4,89.005a24.711,24.711,0,0,0-30.152,3.725L337.39,121.586a18.073,18.073,0,0,0-20.935,3.317l-22.68,22.681a21.758,21.758,0,0,0-28.459,2.032l-174.3,174.3-2.174-2.175h0A19.613,19.613,0,1,0,61.1,349.48l28.6,28.6L49.884,417.9,36.509,404.526a18.458,18.458,0,0,0-26.1,26.1ZM374.731,101.216a12.686,12.686,0,0,1,17.941,17.941l-28.223,28.222-17.94-17.941ZM324.94,133.389a6.052,6.052,0,0,1,8.549,0L360.5,160.4a6.051,6.051,0,0,1,0,8.548l-22.506,22.506L302.435,155.9ZM273.8,158.1a9.805,9.805,0,0,1,13.869,0l48.115,48.115a9.805,9.805,0,0,1,0,13.869L320.17,235.7l-22.184-22.184A6,6,0,0,0,289.5,222l22.183,22.184-12.949,12.949-8.97-8.97a6,6,0,1,0-8.486,8.485l8.971,8.97L277.3,278.572l-22.184-22.184a6,6,0,1,0-8.485,8.486l22.183,22.183-12.949,12.949-8.97-8.97a6,6,0,0,0-8.486,8.485l8.97,8.971-12.949,12.949-22.183-22.184a6,6,0,0,0-8.486,8.486l22.184,22.183L213,342.876l-8.971-8.971a6,6,0,0,0-8.485,8.486l8.97,8.97L191.562,364.31l-22.184-22.184a6,6,0,0,0-8.485,8.486L183.077,372.8l-21.592,21.591L99.5,332.4ZM69.589,341a7.613,7.613,0,0,1,10.766-10.767l83.305,83.3A7.613,7.613,0,0,1,152.893,424.3Zm28.6,45.571,9.132,9.132L67.5,435.519l-9.132-9.132Zm-79.3,26.446a6.465,6.465,0,0,1,9.132,0l52.853,52.852A6.457,6.457,0,1,1,71.744,475L18.891,422.144a6.458,6.458,0,0,1,0-9.132Z" fill="#ffffff" data-original="#000000" style=""/><path xmlns="http://www.w3.org/2000/svg" d="M278.88,181.254a6.5,6.5,0,1,0-4.6-11.093h0a6.5,6.5,0,0,0,4.6,11.093Z" fill="#ffffff" data-original="#000000" style=""/><path xmlns="http://www.w3.org/2000/svg" d="M197.718,262.623a5.986,5.986,0,0,0,4.243-1.757L271.1,191.725a6,6,0,0,0-8.486-8.485l-69.141,69.14a6,6,0,0,0,4.243,10.243Z" fill="#ffffff" data-original="#000000" style=""/></g></svg>
